<svg width="483" height="712" viewBox="0 0 483 712" fill="none" xmlns="http://www.w3.org/2000/svg">
<path d="M447 236C447 125.543 357.457 36 247 36H46C40.4772 36 36 40.4772 36 46V392C36 502.457 125.543 592 236 592H247C357.457 592 447 502.457 447 392V236Z" fill="#0ea5e9"/>
<path d="M247 181C357.457 181 447 270.543 447 381L447 582C447 587.523 442.523 592 437 592L236 592C125.543 592 36 502.457 36 392L36 381C36 270.543 125.543 181 236 181L247 181Z" fill="#0ea5e9"/>
<path d="M236 18C115.602 18 18 115.602 18 236V392C18 512.398 115.602 610 236 610H247C367.398 610 465 512.398 465 392V46C465 30.536 452.464 18 437 18H236Z" fill="#0ea5e9" stroke="white" stroke-width="36"/>
<path d="M78 244C78 160.605 145.605 93 229 93H395C400.523 93 405 97.4772 405 103V371.5C405 461.799 331.799 535 241.5 535C151.201 535 78 461.799 78 371.5V244Z" fill="white"/>
<rect x="218" y="569" width="48" height="143" rx="24" fill="#0ea5e9"/>
<rect x="218" y="381" width="48" height="132" rx="24" fill="#0ea5e9"/>
<rect x="218" y="75" width="48" height="174" rx="24" fill="#0ea5e9"/>
<rect x="304.468" y="302" width="48" height="140.104" rx="24" transform="rotate(42.3978 304.468 302)" fill="#0ea5e9"/>
<rect width="48" height="140.104" rx="24" transform="matrix(-0.738481 0.674274 0.674274 0.738481 180.447 302)" fill="#0ea5e9"/>
<rect x="393" y="93" width="64" height="241" fill="white"/>
<rect x="405" y="75" width="42" height="132" rx="21" fill="#0ea5e9"/>
<rect x="405" y="316" width="42" height="71" rx="21" fill="#0ea5e9"/>
<rect x="405" y="234" width="42" height="55" rx="21" fill="#0ea5e9"/>
</svg>
